<svg width="22" height="22" viewBox="0 0 22 22" fill="none" xmlns="http://www.w3.org/2000/svg">
<path d="M7.33205 20.1635C7.83823 20.1635 8.24857 19.7531 8.24857 19.247C8.24857 18.7408 7.83823 18.3304 7.33205 18.3304C6.82587 18.3304 6.41553 18.7408 6.41553 19.247C6.41553 19.7531 6.82587 20.1635 7.33205 20.1635Z" stroke="#101828" stroke-width="1.64974" stroke-linecap="round" stroke-linejoin="round"/>
<path d="M17.4141 20.1635C17.9203 20.1635 18.3306 19.7531 18.3306 19.247C18.3306 18.7408 17.9203 18.3304 17.4141 18.3304C16.9079 18.3304 16.4976 18.7408 16.4976 19.247C16.4976 19.7531 16.9079 20.1635 17.4141 20.1635Z" stroke="#101828" stroke-width="1.64974" stroke-linecap="round" stroke-linejoin="round"/>
<path d="M1.87891 1.87885H3.71195L6.14989 13.262C6.23933 13.6789 6.47129 14.0516 6.80586 14.3159C7.14043 14.5802 7.55667 14.7196 7.98293 14.7101H16.9465C17.3637 14.7095 17.7682 14.5665 18.0931 14.3049C18.418 14.0433 18.644 13.6786 18.7337 13.2712L20.246 6.46145H4.69263" stroke="#101828" stroke-width="1.64974" stroke-linecap="round" stroke-linejoin="round"/>
</svg>
