<svg width="36" height="36" viewBox="0 0 36 36" fill="none" xmlns="http://www.w3.org/2000/svg">
<path d="M17.0783 26.9125C17.3569 27.0734 17.673 27.1581 17.9948 27.1581C18.3165 27.1581 18.6326 27.0734 18.9113 26.9125L25.3269 23.2464C25.6053 23.0857 25.8366 22.8546 25.9974 22.5763C26.1583 22.298 26.2431 21.9823 26.2435 21.6608V14.3287C26.2431 14.0072 26.1583 13.6915 25.9974 13.4132C25.8366 13.1349 25.6053 12.9038 25.3269 12.7431L18.9113 9.077C18.6326 8.91612 18.3165 8.83142 17.9948 8.83142C17.673 8.83142 17.3569 8.91612 17.0783 9.077L10.6626 12.7431C10.3842 12.9038 10.153 13.1349 9.99214 13.4132C9.83128 13.6915 9.74642 14.0072 9.74609 14.3287V21.6608C9.74642 21.9823 9.83128 22.298 9.99214 22.5763C10.153 22.8546 10.3842 23.0857 10.6626 23.2464L17.0783 26.9125Z" stroke="#101828" stroke-width="1.64974" stroke-linecap="round" stroke-linejoin="round"/>
<path d="M17.9946 27.16V17.9948" stroke="#101828" stroke-width="1.64974" stroke-linecap="round" stroke-linejoin="round"/>
<path d="M10.0117 13.4122L17.9946 17.9948L25.9775 13.4122" stroke="#101828" stroke-width="1.64974" stroke-linecap="round" stroke-linejoin="round"/>
<path d="M13.8706 10.9101L22.1193 15.6302" stroke="#101828" stroke-width="1.64974" stroke-linecap="round" stroke-linejoin="round"/>
</svg>
